<?xml version="1.0" encoding="UTF-8" standalone="no"?>
<!DOCTYPE svg PUBLIC "-//W3C//DTD SVG 1.1//EN"
 "http://www.w3.org/Graphics/SVG/1.1/DTD/svg11.dtd">
<!-- Generated by graphviz version 2.43.0 (0)
 -->
<!-- Title: QueryPlan Pages: 1 -->
<svg width="462pt" height="393pt"
 viewBox="0.00 0.00 462.40 392.85" xmlns="http://www.w3.org/2000/svg" xmlns:xlink="http://www.w3.org/1999/xlink">
<g id="graph0" class="graph" transform="scale(1 1) rotate(0) translate(4 388.85)">
<title>QueryPlan</title>
<polygon fill="white" stroke="transparent" points="-4,4 -4,-388.85 458.4,-388.85 458.4,4 -4,4"/>
<!-- node_1 -->
<g id="node1" class="node">
<title>node_1</title>
<polygon fill="#d5f5e3" stroke="black" points="340,-384.85 214,-384.85 214,-348.85 340,-348.85 340,-384.85"/>
<text text-anchor="middle" x="277" y="-369.85" font-family="Helvetica,sans-Serif" font-size="10.00">Project</text>
<text text-anchor="middle" x="277" y="-358.85" font-family="Helvetica,sans-Serif" font-size="10.00">[table_a.id, table_b.id]</text>
</g>
<!-- node_2 -->
<g id="node2" class="node">
<title>node_2</title>
<polygon fill="#aed6f1" stroke="black" points="277,-312.85 119,-282.85 277,-252.85 435,-282.85 277,-312.85"/>
<text text-anchor="middle" x="277" y="-285.85" font-family="Helvetica,sans-Serif" font-size="10.00">Join</text>
<text text-anchor="middle" x="277" y="-274.85" font-family="Helvetica,sans-Serif" font-size="10.00">(join_key_bc EQ join_key_ab)</text>
</g>
<!-- node_1&#45;&gt;node_2 -->
<g id="edge6" class="edge">
<title>node_1&#45;&gt;node_2</title>
<path fill="none" stroke="black" d="M277,-348.46C277,-341.1 277,-332.19 277,-323.37"/>
<polygon fill="black" stroke="black" points="280.5,-323.16 277,-313.16 273.5,-323.16 280.5,-323.16"/>
</g>
<!-- node_3 -->
<g id="node3" class="node">
<title>node_3</title>
<polygon fill="#aed6f1" stroke="black" points="159,-216.85 0,-186.85 159,-156.85 318,-186.85 159,-216.85"/>
<text text-anchor="middle" x="159" y="-189.85" font-family="Helvetica,sans-Serif" font-size="10.00">Join</text>
<text text-anchor="middle" x="159" y="-178.85" font-family="Helvetica,sans-Serif" font-size="10.00">(join_key_ab EQ join_key_ab)</text>
</g>
<!-- node_2&#45;&gt;node_3 -->
<g id="edge4" class="edge">
<title>node_2&#45;&gt;node_3</title>
<path fill="none" stroke="black" d="M247.53,-258.38C232.04,-246.04 212.9,-230.79 196.38,-217.63"/>
<polygon fill="black" stroke="black" points="198.51,-214.85 188.51,-211.36 194.15,-220.33 198.51,-214.85"/>
</g>
<!-- node_7 -->
<g id="node7" class="node">
<title>node_7</title>
<ellipse fill="#f9e79f" stroke="black" cx="395" cy="-186.85" rx="59.29" ry="21.43"/>
<text text-anchor="middle" x="395" y="-189.85" font-family="Helvetica,sans-Serif" font-size="10.00">Base Relation</text>
<text text-anchor="middle" x="395" y="-178.85" font-family="Helvetica,sans-Serif" font-size="10.00">[table_c]</text>
</g>
<!-- node_2&#45;&gt;node_7 -->
<g id="edge5" class="edge">
<title>node_2&#45;&gt;node_7</title>
<path fill="none" stroke="black" d="M306.47,-258.38C323.72,-244.64 345.5,-227.28 363.14,-213.23"/>
<polygon fill="black" stroke="black" points="365.79,-215.59 371.43,-206.63 361.43,-210.12 365.79,-215.59"/>
</g>
<!-- node_4 -->
<g id="node4" class="node">
<title>node_4</title>
<ellipse fill="#f9e79f" stroke="black" cx="86" cy="-99.64" rx="59.29" ry="21.43"/>
<text text-anchor="middle" x="86" y="-102.64" font-family="Helvetica,sans-Serif" font-size="10.00">Base Relation</text>
<text text-anchor="middle" x="86" y="-91.64" font-family="Helvetica,sans-Serif" font-size="10.00">[table_a]</text>
</g>
<!-- node_3&#45;&gt;node_4 -->
<g id="edge2" class="edge">
<title>node_3&#45;&gt;node_4</title>
<path fill="none" stroke="black" d="M137.49,-160.75C128.64,-150.42 118.37,-138.43 109.34,-127.89"/>
<polygon fill="black" stroke="black" points="111.89,-125.48 102.72,-120.16 106.57,-130.03 111.89,-125.48"/>
</g>
<!-- node_5 -->
<g id="node5" class="node">
<title>node_5</title>
<ellipse fill="#f5b7b1" stroke="black" cx="233" cy="-99.64" rx="69.09" ry="21.43"/>
<text text-anchor="middle" x="233" y="-102.64" font-family="Helvetica,sans-Serif" font-size="10.00">Select</text>
<text text-anchor="middle" x="233" y="-91.64" font-family="Helvetica,sans-Serif" font-size="10.00">(table_b.id GT 1)</text>
</g>
<!-- node_3&#45;&gt;node_5 -->
<g id="edge3" class="edge">
<title>node_3&#45;&gt;node_5</title>
<path fill="none" stroke="black" d="M180.8,-160.75C189.7,-150.5 200.02,-138.61 209.13,-128.13"/>
<polygon fill="black" stroke="black" points="211.89,-130.28 215.81,-120.44 206.61,-125.69 211.89,-130.28"/>
</g>
<!-- node_6 -->
<g id="node6" class="node">
<title>node_6</title>
<ellipse fill="#f9e79f" stroke="black" cx="233" cy="-21.21" rx="59.29" ry="21.43"/>
<text text-anchor="middle" x="233" y="-24.21" font-family="Helvetica,sans-Serif" font-size="10.00">Base Relation</text>
<text text-anchor="middle" x="233" y="-13.21" font-family="Helvetica,sans-Serif" font-size="10.00">[table_b]</text>
</g>
<!-- node_5&#45;&gt;node_6 -->
<g id="edge1" class="edge">
<title>node_5&#45;&gt;node_6</title>
<path fill="none" stroke="black" d="M233,-78.16C233,-70.3 233,-61.16 233,-52.57"/>
<polygon fill="black" stroke="black" points="236.5,-52.49 233,-42.49 229.5,-52.49 236.5,-52.49"/>
</g>
</g>
</svg>
